<?xml version="1.0" standalone="no"?><?xml-stylesheet type="text/css" href="https://www.processon.com/themes/default/mind/icons/icons.css" ?><!DOCTYPE svg PUBLIC "-//W3C//DTD SVG 1.1//EN" "http://www.w3.org/Graphics/SVG/1.1/DTD/svg11.dtd"><svg id="SvgjsSvg1000" xmlns="http://www.w3.org/2000/svg" version="1.1" xmlns:xlink="http://www.w3.org/1999/xlink" xmlns:svgjs="http://svgjs.com/svgjs" width="264" height="661.984375"><rect fill="url(#pattern_mark)" transform="translate(-360.5,-113.515625)" width="1050" height="1500" id="rect_mark" pointer-events="none"></rect><defs id="SvgjsDefs1001"><marker id="SvgjsMarker1015" markerWidth="16" markerHeight="12" refX="10" refY="6" viewBox="0 0 16 12" orient="auto" markerUnits="userSpaceOnUse"><path id="SvgjsPath1016" d="M0 3L10 6L0 9L0 3 " fill="#ff33ff" stroke="#ff33ff" stroke-width="1"></path></marker><marker id="SvgjsMarker1047" markerWidth="16" markerHeight="12" refX="10" refY="6" viewBox="0 0 16 12" orient="auto" markerUnits="userSpaceOnUse"><path id="SvgjsPath1048" d="M0 3L10 6L0 9L0 3 " fill="#ff33ff" stroke="#ff33ff" stroke-width="1"></path></marker><marker id="SvgjsMarker1059" markerWidth="16" markerHeight="12" refX="10" refY="6" viewBox="0 0 16 12" orient="auto" markerUnits="userSpaceOnUse"><path id="SvgjsPath1060" d="M0 3L10 6L0 9L0 3 " fill="#ff33ff" stroke="#ff33ff" stroke-width="1"></path></marker><marker id="SvgjsMarker1063" markerWidth="16" markerHeight="12" refX="10" refY="6" viewBox="0 0 16 12" orient="auto" markerUnits="userSpaceOnUse"><path id="SvgjsPath1064" d="M0 3L10 6L0 9L0 3 " fill="#ff33ff" stroke="#ff33ff" stroke-width="1"></path></marker><marker id="SvgjsMarker1081" markerWidth="16" markerHeight="12" refX="10" refY="6" viewBox="0 0 16 12" orient="auto" markerUnits="userSpaceOnUse"><path id="SvgjsPath1082" d="M0 3L10 6L0 9L0 3 " fill="#ff33ff" stroke="#ff33ff" stroke-width="1"></path></marker><marker id="SvgjsMarker1085" markerWidth="16" markerHeight="12" refX="16" refY="6" viewBox="0 0 16 12" orient="auto" markerUnits="userSpaceOnUse"><path id="SvgjsPath1086" d="M0 2L14 6L0 11L0 2 " fill="#323232" stroke="#323232" stroke-width="2"></path></marker><marker id="SvgjsMarker1095" markerWidth="16" markerHeight="12" refX="10" refY="6" viewBox="0 0 16 12" orient="auto" markerUnits="userSpaceOnUse"><path id="SvgjsPath1096" d="M0 3L10 6L0 9L0 3 " fill="#ff33ff" stroke="#ff33ff" stroke-width="1"></path></marker><pattern patternUnits="userSpaceOnUse" id="pattern_mark" width="300" height="300"><text x="-50" y="150" fill="rgba(229,229,229,0.8)" font-size="18" transform="rotate(-45, 150, 150)"></text></pattern></defs><g id="SvgjsG1007" transform="translate(85,461.234375)"><path id="SvgjsPath1008" d="M0 40.25L71.5 0L143 40.25L71.5 80.5L0 40.25Z " stroke="rgba(255,51,255,1)" stroke-width="1" fill-opacity="1" fill="#f5927b"></path><g id="SvgjsG1009"><text id="SvgjsText1010" font-family="微软雅黑" text-anchor="middle" font-size="14px" width="70" fill="#323232" font-weight="700" align="middle" font-style="" opacity="1" y="29.15" transform="rotate(0)"><tspan id="SvgjsTspan1011" dy="17" x="72"><tspan id="SvgjsTspan1012" style="text-decoration:;">是否收敛？</tspan></tspan></text></g></g><g id="SvgjsG1013"><path id="SvgjsPath1014" d="M85 503.734375L25 503.734375L25 51.54664606227104L101.15342349957734 51.54664606227104 " stroke="#ff33ff" stroke-width="1" fill="none" marker-end="url(#SvgjsMarker1015)"></path></g><g id="SvgjsG1017" transform="translate(32.25,479.484375)"><path id="SvgjsPath1018" d="M0 0L48 0L48 44L0 44Z " stroke="none" fill="none"></path><g id="SvgjsG1019"><text id="SvgjsText1020" font-family="微软雅黑" text-anchor="start" font-size="14px" width="42" fill="#000000" font-weight="700" align="top" font-style="" opacity="1" y="-2.1" transform="rotate(0)"><tspan id="SvgjsTspan1021" dy="17" x="0"><tspan id="SvgjsTspan1022" style="text-decoration:;">不收敛</tspan></tspan></text></g></g><g id="SvgjsG1023" transform="translate(169.5,543.984375)"><path id="SvgjsPath1024" d="M0 0L48 0L48 44L0 44Z " stroke="none" fill="none"></path><g id="SvgjsG1025"><text id="SvgjsText1026" font-family="微软雅黑" text-anchor="start" font-size="14px" width="28" fill="#000000" font-weight="700" align="top" font-style="" opacity="1" y="-2.1" transform="rotate(0)"><tspan id="SvgjsTspan1027" dy="17" x="0"><tspan id="SvgjsTspan1028" style="text-decoration:;">收敛</tspan></tspan></text></g></g><g id="SvgjsG1029" transform="translate(85,114.484375)"><path id="SvgjsPath1030" d="M0 4Q0 0 4 0L139 0Q143 0 143 4L143 40Q143 44 139 44L4 44Q0 44 0 40Z " stroke="rgba(255,51,255,1)" stroke-width="1" fill-opacity="1" fill="#ffcc99"></path><g id="SvgjsG1031"><text id="SvgjsText1032" font-family="微软雅黑" text-anchor="middle" font-size="14px" width="98" fill="#323232" font-weight="700" align="middle" font-style="" opacity="1" y="1.9" transform="rotate(0)"><tspan id="SvgjsTspan1033" dy="17" x="72"><tspan id="SvgjsTspan1034" style="text-decoration:;">顺序求解速度：</tspan></tspan><tspan id="SvgjsTspan1035" dy="17" x="72"><tspan id="SvgjsTspan1036" style="text-decoration:;">U、V、W</tspan></tspan></text></g></g><g id="SvgjsG1037" transform="translate(74,204.484375)"><path id="SvgjsPath1038" d="M0 4Q0 0 4 0L161 0Q165 0 165 4L165 49Q165 53 161 53L4 53Q0 53 0 49Z " stroke="rgba(255,51,255,1)" stroke-width="1" fill-opacity="1" fill="#ffcc99"></path><g id="SvgjsG1039"><text id="SvgjsText1040" font-family="微软雅黑" text-anchor="middle" font-size="14px" width="140" fill="#323232" font-weight="700" align="middle" font-style="" opacity="1" y="6.4" transform="rotate(0)"><tspan id="SvgjsTspan1041" dy="17" x="83"><tspan id="SvgjsTspan1042" style="text-decoration:;">求解压力修正（连续）</tspan></tspan><tspan id="SvgjsTspan1043" dy="17" x="83"><tspan id="SvgjsTspan1044" style="text-decoration:;">方程</tspan></tspan></text></g></g><g id="SvgjsG1045"><path id="SvgjsPath1046" d="M156.5 257.484375L156.5 270.984375L156.5 270.984375L156.5 288.484375 " stroke="#ff33ff" stroke-width="1" fill="none" marker-end="url(#SvgjsMarker1047)"></path></g><g id="SvgjsG1049" transform="translate(77.5,288.484375)"><path id="SvgjsPath1050" d="M0 4Q0 0 4 0L154 0Q158 0 158 4L158 40Q158 44 154 44L4 44Q0 44 0 40Z " stroke="rgba(255,51,255,1)" stroke-width="1" fill-opacity="1" fill="#ffcc99"></path><g id="SvgjsG1051"><text id="SvgjsText1052" font-family="微软雅黑" text-anchor="middle" font-size="14px" width="126" fill="#323232" font-weight="700" align="middle" font-style="" opacity="1" y="1.9" transform="rotate(0)"><tspan id="SvgjsTspan1053" dy="17" x="79.5"><tspan id="SvgjsTspan1054" style="text-decoration:;">更新质量通量，压力</tspan></tspan><tspan id="SvgjsTspan1055" dy="17" x="79.5"><tspan id="SvgjsTspan1056" style="text-decoration:;">及速度</tspan></tspan></text></g></g><g id="SvgjsG1057"><path id="SvgjsPath1058" d="M156.5 158.484375L156.5 182.984375L156.5 182.984375L156.5 204.484375 " stroke="#ff33ff" stroke-width="1" fill="none" marker-end="url(#SvgjsMarker1059)"></path></g><g id="SvgjsG1061"><path id="SvgjsPath1062" d="M156.5 332.484375L156.5 351.984375L156.5 351.984375L156.5 371.484375 " stroke="#ff33ff" stroke-width="1" fill="none" marker-end="url(#SvgjsMarker1063)"></path></g><g id="SvgjsG1065" transform="translate(77.5,371.484375)"><path id="SvgjsPath1066" d="M0 4Q0 0 4 0L154 0Q158 0 158 4L158 40Q158 44 154 44L4 44Q0 44 0 40Z " stroke="rgba(255,51,255,1)" stroke-width="1" fill-opacity="1" fill="#ffcc99"></path><g id="SvgjsG1067"><text id="SvgjsText1068" font-family="微软雅黑" text-anchor="middle" font-size="14px" width="126" fill="#323232" font-weight="700" align="middle" font-style="" opacity="1" y="1.9" transform="rotate(0)"><tspan id="SvgjsTspan1069" dy="17" x="79.5"><tspan id="SvgjsTspan1070" style="text-decoration:;">求解能量、组分、湍</tspan></tspan><tspan id="SvgjsTspan1071" dy="17" x="79.5"><tspan id="SvgjsTspan1072" style="text-decoration:;">流及其他标量方程</tspan></tspan></text></g></g><g id="SvgjsG1073" transform="translate(101.15342349957734,25.00818452380952)"><path id="SvgjsPath1074" d="M0 0L111 0L111 53.07692307692304L0 53.07692307692304Z " stroke="rgba(255,51,255,1)" stroke-width="1" fill-opacity="1" fill="#ffcc99"></path><g id="SvgjsG1075"><text id="SvgjsText1076" font-family="微软雅黑" text-anchor="middle" font-size="14px" width="84" fill="#323232" font-weight="700" align="middle" font-style="" opacity="1" y="15.43846153846152" transform="rotate(0)"><tspan id="SvgjsTspan1077" dy="17" x="56"><tspan id="SvgjsTspan1078" style="text-decoration:;">更新介质属性</tspan></tspan></text></g></g><g id="SvgjsG1079"><path id="SvgjsPath1080" d="M156.5 415.484375L156.5 439.984375L156.5 439.984375L156.5 461.234375 " stroke="#ff33ff" stroke-width="1" fill="none" marker-end="url(#SvgjsMarker1081)"></path></g><g id="SvgjsG1083"><path id="SvgjsPath1084" d="M156 541.734375L156 563.3609705198646L156 563.3609705198646L156 582.7375660397294 " stroke="#323232" stroke-width="2" fill="none" marker-end="url(#SvgjsMarker1085)"></path></g><g id="SvgjsG1087" transform="translate(106.5,583.984375)"><path id="SvgjsPath1088" d="M0 26.5L16.666666666666668 0L83.33333333333333 0L100 26.5L83.33333333333333 53L16.666666666666668 53L0 26.5Z " stroke="rgba(50,50,50,1)" stroke-width="2" fill-opacity="1" fill="#ccffff"></path><g id="SvgjsG1089"><text id="SvgjsText1090" font-family="微软雅黑" text-anchor="middle" font-size="14px" width="28" fill="#323232" font-weight="700" align="middle" font-style="" opacity="1" y="15.4" transform="rotate(0)"><tspan id="SvgjsTspan1091" dy="17" x="50.5"><tspan id="SvgjsTspan1092" style="text-decoration:;">结束</tspan></tspan></text></g></g><g id="SvgjsG1093"><path id="SvgjsPath1094" d="M156.65342349957734 78.08510760073256L156.65342349957734 96.28474130036625L156.5 96.28474130036625L156.5 114.484375 " stroke="#ff33ff" stroke-width="1" fill="none" marker-end="url(#SvgjsMarker1095)"></path></g></svg>